# xmcd
#
# Track frame offsets: 
#        150
#        23242
#        46077
#        61857
#        83001
#        108827
#        133097
#        150889
#        172272
#        188564
#        205388
#
# Disc length: 2906 seconds
#
# Revision: 0
# Processed by: cddbd v1.5.2PL0 Copyright (c) Steve Scherf et al.
# Submitted via: ExactAudioCopyFreeDBPlugin 1.0
#
DISCID=840b580b
DTITLE=Eric Erdman - It's Not Like You Don't Know Me
DYEAR=2018
DGENRE=Blues
TTITLE0=The Pond
TTITLE1=That's What Love Does
TTITLE2=It's Not Like You Don't Know Me
TTITLE3=The Well
TTITLE4=You're Still Dangerous
TTITLE5=What Karma Wouldn't Do
TTITLE6=The Leader of the Exodus
TTITLE7=What's Left of What Used To Be
TTITLE8=The Drought Is Over
TTITLE9=I Get Carried Away
TTITLE10=Bird on a Powerline
EXTD=
EXTT0=
EXTT1=
EXTT2=
EXTT3=
EXTT4=
EXTT5=
EXTT6=
EXTT7=
EXTT8=
EXTT9=
EXTT10=
PLAYORDER=
